<svg width="13" height="13" viewBox="0 0 13 13" fill="none" xmlns="http://www.w3.org/2000/svg">
<circle cx="6.5" cy="8" r="3.75" stroke="#7D7D7D" stroke-width="0.5"/>
<path fill-rule="evenodd" clip-rule="evenodd" d="M9 4.87731V4C9 2.61929 7.88071 1.5 6.5 1.5C5.11929 1.5 4 2.61929 4 4V4.87731C3.81993 5.02167 3.65261 5.18127 3.5 5.35418V4C3.5 2.34315 4.84315 1 6.5 1C8.15685 1 9.5 2.34315 9.5 4V5.35418C9.34739 5.18127 9.18007 5.02167 9 4.87731Z" fill="#7D7D7D"/>
<path fill-rule="evenodd" clip-rule="evenodd" d="M6.75 8.45732C7.0413 8.35436 7.25 8.07655 7.25 7.75C7.25 7.33579 6.91421 7 6.5 7C6.08579 7 5.75 7.33579 5.75 7.75C5.75 8.07655 5.9587 8.35436 6.25 8.45732L6.25 9C6.25 9.13807 6.36193 9.25 6.5 9.25C6.63807 9.25 6.75 9.13807 6.75 9V8.45732Z" fill="#7D7D7D"/>
</svg>
