<svg width="55" height="16" viewBox="0 0 55 16" fill="none" xmlns="http://www.w3.org/2000/svg">
<path fill-rule="evenodd" clip-rule="evenodd" d="M0 3.99428V12.0795L6.96285 16.0004L13.9998 12.0795V3.99428L6.96285 0.000366211L0 3.99428ZM1.97559 5.1099V10.9185L6.96133 13.7353L12.0001 10.9185V5.1099L6.96316 2.2406L1.97559 5.1099Z" fill="#8430ED"/>
<path fill-rule="evenodd" clip-rule="evenodd" d="M6.96289 2.24075L6.96316 2.2406L12.0001 5.1099V10.9185L11.9997 10.9187L11.9998 10.9188L13.9998 12.0795V3.99428L6.96289 0.000366211V2.24075Z" fill="black"/>
<path fill-rule="evenodd" clip-rule="evenodd" d="M6.01746 8.20188L1.5333 5.9876L2.41759 4.24548L8.00732 7.0057L7.92589 13.7491L5.95075 13.7259L6.01746 8.20188Z" fill="#8430ED"/>
<path d="M51.383 14.0004V2.00037H53.6916V6.20354H54.9998V8.20989H53.6916V14.0004H51.383ZM42.8285 12.502L44.9062 2.27973H48.5742L50.652 12.502L48.3434 12.921L46.7787 3.94322H46.7017L45.137 12.921L42.8285 12.502Z" fill="black"/>
<path d="M30.8827 12.7178V6.40672H35.0638V4.28608H30.8314V2.27973H37.3724V8.38767H33.1913V10.7115H37.5006C38.2317 10.7115 38.6549 10.6226 39.1936 10.3178V2.00037H41.5022V14.0004H39.1936V12.1845C38.8345 12.5147 38.3086 12.7178 37.4365 12.7178H30.8827Z" fill="black"/>
<path d="M26.2339 14.0004V2.00037H28.5425V6.20354H29.8507V8.20989H28.5425V14.0004H26.2339ZM18 9.92418V5.07338C18 3.18132 19.2056 2.19084 21.5013 2.19084C23.7971 2.19084 24.9898 3.18132 24.9898 5.07338V9.92418C24.9898 11.8162 23.7971 12.8067 21.5013 12.8067C19.2056 12.8067 18 11.8162 18 9.92418ZM20.3086 9.78449C20.3086 10.4575 20.719 10.8004 21.5013 10.8004C22.2709 10.8004 22.6813 10.4575 22.6813 9.78449V5.21306C22.6813 4.54005 22.2709 4.19719 21.5013 4.19719C20.719 4.19719 20.3086 4.54005 20.3086 5.21306V9.78449Z" fill="black"/>
</svg>
