<svg width="24" height="24" viewBox="0 0 24 24" fill="none" xmlns="http://www.w3.org/2000/svg">
<rect width="24" height="24" fill="white" fill-opacity="0.2"/>
<path d="M16.802 0.606749C16.802 0.606749 14.1806 6.53026 12.272 6.53026C9.58395 6.53026 7.17065 1.29463 7.17065 1.29463C7.17065 1.29463 7.85229 0.376813 9.2603 0.216146C10.8234 0.0371997 12.0607 1.40527 13.4417 1.36679C15.1015 1.32061 15.2837 -0.382266 16.802 0.606749Z" fill="#AE0000"/>
<path d="M22.4 16.4861C22.4 21.3925 17.7441 23.8 11.9996 23.8C6.25516 23.8 1.60028 21.3925 1.60028 16.4861C1.60028 11.7245 9.9672 5.14761 12.0007 5.14761C14.0331 5.14761 22.4 11.7245 22.4 16.4861Z" fill="#AE0000"/>
<path d="M11.023 6.99286V9.80309C11.023 10.1206 10.742 10.3803 10.3986 10.3803H10.2685C9.92508 10.3803 9.6441 10.1206 9.6441 9.80309V6.99286C9.6441 6.67538 9.92508 6.41562 10.2685 6.41562H10.3986C10.742 6.41562 11.023 6.67538 11.023 6.99286Z" fill="#FFD43E"/>
<path d="M14.9225 5.99916H9.05109C8.70768 5.99916 8.4267 5.7394 8.4267 5.42192V5.30166C8.4267 4.98417 8.70768 4.72441 9.05109 4.72441H14.9225C15.2659 4.72441 15.5469 4.98417 15.5469 5.30166V5.42192C15.5469 5.7394 15.2659 5.99916 14.9225 5.99916Z" fill="#FFD43E"/>
<path d="M15.6249 7.16811H8.3476C8.00418 7.16811 7.72321 6.90835 7.72321 6.59086V6.4706C7.72321 6.15312 8.00418 5.89336 8.3476 5.89336H15.6239C15.9673 5.89336 16.2483 6.15312 16.2483 6.4706V6.59086C16.2493 6.90835 15.9684 7.16811 15.6249 7.16811Z" fill="#FDB813"/>
<path d="M10.4636 15.5263H9.77679C9.75598 15.5263 9.73517 15.5359 9.71435 15.5551C9.70048 15.5744 9.69701 15.5936 9.70395 15.6128L10.1098 18.018C10.1098 18.0244 10.1133 18.0277 10.1202 18.0277C10.1271 18.0277 10.1306 18.0244 10.1306 18.018L10.5365 15.6128C10.5434 15.5936 10.5365 15.5744 10.5157 15.5551C10.5018 15.5359 10.4844 15.5263 10.4636 15.5263ZM11.931 13.8426L11.8165 14.5161C11.8096 14.5353 11.813 14.5546 11.8269 14.5738C11.8477 14.593 11.8685 14.6027 11.8893 14.6027H11.9934C12.0142 14.6027 12.0316 14.593 12.0454 14.5738C12.0662 14.5546 12.0732 14.5353 12.0663 14.5161L11.9518 13.8426C11.9518 13.8362 11.9483 13.833 11.9414 13.833C11.9344 13.833 11.931 13.8362 11.931 13.8426ZM14.1476 15.5263H13.4711C13.4503 15.5263 13.4295 15.5359 13.4087 15.5551C13.3879 15.5744 13.381 15.5936 13.3879 15.6128L13.7937 18.018C13.7937 18.0244 13.7972 18.0277 13.8042 18.0277C13.8111 18.0277 13.8146 18.0244 13.8146 18.018L14.2204 15.6128C14.2274 15.5936 14.2204 15.5744 14.1996 15.5551C14.1857 15.5359 14.1684 15.5263 14.1476 15.5263ZM7.80994 15.5263C7.67119 15.5263 7.55325 15.4814 7.45612 15.3916C7.35899 15.3018 7.31042 15.1927 7.31042 15.0645C7.31042 14.9362 7.35899 14.8271 7.45612 14.7374C7.55325 14.6476 7.67119 14.6027 7.80994 14.6027H8.07011C8.09092 14.6027 8.10827 14.593 8.12214 14.5738C8.14295 14.5546 8.14989 14.5353 8.14295 14.5161L7.78913 12.9575C7.76138 12.8164 7.79607 12.6913 7.8932 12.5823C7.99032 12.4733 8.1152 12.4187 8.26783 12.4187H8.56963C8.74307 12.4187 8.89223 12.4701 9.01711 12.5727C9.14199 12.6753 9.2183 12.8036 9.24606 12.9575L9.51663 14.5161C9.5305 14.5738 9.56519 14.6027 9.62069 14.6027H10.6093C10.6648 14.6027 10.6995 14.5738 10.7134 14.5161L10.9736 12.9575C11.0013 12.8036 11.0776 12.6753 11.2025 12.5727C11.3274 12.4701 11.4765 12.4187 11.65 12.4187H12.2744C12.4478 12.4187 12.597 12.4701 12.7219 12.5727C12.8467 12.6753 12.9231 12.8036 12.9508 12.9575L13.211 14.5161C13.2249 14.5738 13.2595 14.6027 13.315 14.6027H14.3037C14.3592 14.6027 14.3939 14.5738 14.4077 14.5161L14.6783 12.9575C14.7061 12.8036 14.7824 12.6753 14.9073 12.5727C15.0321 12.4701 15.1813 12.4187 15.3547 12.4187H15.6149C15.7675 12.4187 15.8924 12.4733 15.9895 12.5823C16.0867 12.6913 16.1214 12.8164 16.0936 12.9575L15.7398 14.5161C15.7328 14.5353 15.7363 14.5546 15.7502 14.5738C15.771 14.593 15.7918 14.6027 15.8126 14.6027H16.0728C16.2116 14.6027 16.3295 14.6476 16.4266 14.7374C16.5238 14.8271 16.5723 14.9362 16.5723 15.0645C16.5723 15.1927 16.5238 15.3018 16.4266 15.3916C16.3295 15.4814 16.2116 15.5263 16.0728 15.5263H15.6045C15.549 15.5263 15.5143 15.5551 15.5004 15.6128L14.7616 18.9031C14.7269 19.0571 14.6436 19.1854 14.5118 19.288C14.38 19.3906 14.2274 19.4419 14.0539 19.4419H13.5024C13.3289 19.4419 13.1763 19.3906 13.0445 19.288C12.9196 19.1854 12.8433 19.0571 12.8155 18.9031L12.2536 15.6128C12.2397 15.5551 12.205 15.5263 12.1495 15.5263H11.7332C11.6777 15.5263 11.643 15.5551 11.6292 15.6128L11.0672 18.9031C11.0395 19.0571 10.9597 19.1854 10.8279 19.288C10.703 19.3906 10.5538 19.4419 10.3804 19.4419H9.82883C9.65538 19.4419 9.50275 19.3906 9.37094 19.288C9.23912 19.1854 9.15587 19.0571 9.12118 18.9031L8.38231 15.6128C8.36843 15.5551 8.33374 15.5263 8.27824 15.5263H7.80994Z" fill="white"/>
</svg>
